#!OML:ASF X:\für Bonn\!DataBase\2005_08_11_Bastian_Final\c3d\Bastian.ASF
:FULLY-SPECIFIED
:DEGREES
199
root 18.7076 15.6593 -3.13824 1094.44 -51.6505 21.2958
lowerback 76.3729 -0.815533 9.55775
upperback 13.6744 4.81354 3.66631
thorax -4.84715 1.55758 -1.33181
lowerneck -7.90834 -8.79364 -6.48997
upperneck -25.4787 -11.1086 9.35782
head -5.54463 -6.12329 4.31669
rclavicle 4.45278e-014 3.18055e-014
rhumerus 80.731 2.20605 -39.2935
rradius 10.8045
rwrist 0.10448
rhand -32.8085 -22.8198
rfingers 7.12502
rthumb -6.02934 -52.714
lclavicle 4.45278e-014 3.18055e-014
lhumerus -9.11233 -26.8525 -265.984
lradius 46.3725
lwrist -331.756
lhand -13.4741 -18.0267
lfingers 7.12502
lthumb 12.6361 11.5711
rfemur -79.8535 -28.3266 26.1093
rtibia 74.5578
rfoot -23.2301 -4.89803
rtoes 5.61835
lfemur -72.5131 -10.7804 -32.9388
ltibia 53.2151
lfoot -0.304813 -22.029
ltoes -10.0446
200
root 18.6952 15.6494 -3.1463 1094.61 -51.398 21.258
lowerback 76.2959 -0.80721 9.58912
upperback 13.7316 4.84432 3.69484
thorax -4.78737 1.57799 -1.32596
lowerneck -8.0285 -8.90789 -6.71053
upperneck -25.623 -11.1869 9.72073
head -5.52538 -6.17419 4.46406
rclavicle -1.59028e-014 1.74931e-014
rhumerus 80.9434 2.00923 -41.0186
rradius 10.5489
rwrist 1.86312
rhand -33.1622 -23.1842
rfingers 7.12502
rthumb -6.37083 -53.0684
lclavicle -1.59028e-014 1.74931e-014
lhumerus -9.10982 -26.7683 -265.883
lradius 46.3024
lwrist -331.764
lhand -13.459 -17.962
lfingers 7.12502
lthumb 12.6507 11.6348
rfemur -80.0703 -28.489 26.2894
rtibia 74.7134
rfoot -23.3649 -4.95048
rtoes 5.66278
lfemur -72.6848 -10.928 -32.8703
ltibia 53.3323
lfoot -0.303525 -22.1517
ltoes -9.9301
201
root 18.6831 15.6394 -3.15457 1094.76 -51.1621 21.2241
lowerback 76.238 -0.780395 9.5846
upperback 13.7817 4.87062 3.72305
thorax -4.73807 1.59419 -1.30478
lowerneck -8.0404 -9.01216 -6.93954
upperneck -25.8785 -11.248 10.1224
head -5.55574 -6.22118 4.63758
rclavicle 6.04305e-014 2.70347e-014
rhumerus 81.1132 1.84136 -42.67
rradius 10.3591
rwrist 3.63801
rhand -33.5575 -23.515
rfingers 7.12502
rthumb -6.75243 -53.3874
lclavicle 6.04305e-014 2.70347e-014
lhumerus -9.09795 -26.6698 -265.791
lradius 46.165
lwrist -331.906
lhand -13.4888 -17.9524
lfingers 7.12502
lthumb 12.622 11.6463
rfemur -80.2713 -28.6362 26.451
rtibia 74.8651
rfoot -23.5032 -5.00109
rtoes 5.73894
lfemur -72.841 -11.0521 -32.8166
ltibia 53.4515
lfoot -0.302346 -22.2803
ltoes -9.81203
202
root 18.6709 15.6292 -3.16237 1094.86 -50.9231 21.2
lowerback 76.2402 -0.749671 9.56915
upperback 13.7922 4.90737 3.76245
thorax -4.73108 1.60945 -1.2687
lowerneck -7.9788 -9.10903 -7.11995
upperneck -26.1336 -11.3118 10.4806
head -5.60278 -6.27105 4.79455
rclavicle -3.81667e-014 8.90555e-014
rhumerus 81.2383 1.7259 -44.0803
rradius 10.1808
rwrist 5.17882
rhand -33.9629 -23.8352
rfingers 7.12502
rthumb -7.14375 -53.6947
lclavicle -3.81667e-014 8.90555e-014
lhumerus -9.18597 -26.5897 -265.648
lradius 46.0571
lwrist -332.085
lhand -13.6176 -17.9693
lfingers 7.12502
lthumb 12.4978 11.6369
rfemur -80.4117 -28.7973 26.5852
rtibia 75.0139
rfoot -23.6549 -5.05087
rtoes 5.68929
lfemur -72.9494 -11.1714 -32.7883
ltibia 53.5743
lfoot -0.345115 -22.4061
ltoes -9.87392
203
root 18.6609 15.6197 -3.17083 1095.02 -50.6826 21.1096
lowerback 76.222 -0.735379 9.60408
upperback 13.8055 4.95437 3.77313
thorax -4.71402 1.63469 -1.28926
lowerneck -7.96213 -9.20516 -7.20265
upperneck -26.33 -11.3653 10.8677
head -5.62722 -6.32544 4.93954
rclavicle -6.36111e-015 -1.43125e-014
rhumerus 81.31 1.56613 -45.4854
rradius 10.0078
rwrist 6.68903
rhand -34.4448 -24.1218
rfingers 7.12502
rthumb -7.60892 -53.9649
lclavicle -6.36111e-015 -1.43125e-014
lhumerus -9.28481 -26.632 -265.578
lradius 45.9648
lwrist -332.238
lhand -13.7359 -17.9395
lfingers 7.12502
lthumb 12.3837 11.6737
rfemur -80.5595 -28.9418 26.7657
rtibia 75.159
rfoot -23.781 -5.10599
rtoes 5.72075
lfemur -73.0745 -11.2778 -32.7103
ltibia 53.6942
lfoot -0.337218 -22.5402
ltoes -9.75422
